<svg xmlns="http://www.w3.org/2000/svg" viewBox="0 0 192 192" width="192" height="192">
  <!-- Dark background with rounded corners -->
  <rect width="192" height="192" rx="36" fill="#14181c"/>

  <!-- Film strip perforations - left column -->
  <rect x="20" y="34" width="18" height="14" rx="3" fill="#00e054" opacity="0.25"/>
  <rect x="20" y="58" width="18" height="14" rx="3" fill="#00e054" opacity="0.25"/>
  <rect x="20" y="82" width="18" height="14" rx="3" fill="#00e054" opacity="0.25"/>
  <rect x="20" y="106" width="18" height="14" rx="3" fill="#00e054" opacity="0.25"/>
  <rect x="20" y="130" width="18" height="14" rx="3" fill="#00e054" opacity="0.25"/>
  <rect x="20" y="144" width="18" height="14" rx="3" fill="#00e054" opacity="0.25"/>

  <!-- Film strip perforations - right column -->
  <rect x="154" y="34" width="18" height="14" rx="3" fill="#00e054" opacity="0.25"/>
  <rect x="154" y="58" width="18" height="14" rx="3" fill="#00e054" opacity="0.25"/>
  <rect x="154" y="82" width="18" height="14" rx="3" fill="#00e054" opacity="0.25"/>
  <rect x="154" y="106" width="18" height="14" rx="3" fill="#00e054" opacity="0.25"/>
  <rect x="154" y="130" width="18" height="14" rx="3" fill="#00e054" opacity="0.25"/>
  <rect x="154" y="144" width="18" height="14" rx="3" fill="#00e054" opacity="0.25"/>

  <!-- Film strip horizontal rails -->
  <rect x="14" y="26" width="164" height="8" rx="2" fill="#1e2529"/>
  <rect x="14" y="158" width="164" height="8" rx="2" fill="#1e2529"/>

  <!-- Central "F" letterform -->
  <!-- Vertical stem -->
  <rect x="74" y="56" width="16" height="80" rx="4" fill="#00e054"/>
  <!-- Top horizontal bar -->
  <rect x="74" y="56" width="48" height="16" rx="4" fill="#00e054"/>
  <!-- Middle horizontal bar -->
  <rect x="74" y="88" width="38" height="14" rx="4" fill="#00e054"/>
</svg>
